<svg width="295" height="123" xmlns="http://www.w3.org/2000/svg" version="1.1">

 <g>
  <title>Layer 1</title>
  <path fill-rule="evenodd" fill="#fbdb7f" d="m282.97224,3.963c-2.363,1.275 -4.217,5.703 -6.308,15.065c-0.507,2.266 -1.584,6.62 -2.395,9.676c-0.81,3.055 -1.476,6.004 -1.478,6.552c-0.002,0.548 -0.152,1.088 -0.333,1.2c-0.334,0.206 -0.969,2.729 -0.832,3.305c0.042,0.174 -0.075,0.508 -0.259,0.741c-0.536,0.678 -1.312,3.311 -1.243,4.22c0.034,0.459 -0.09,0.834 -0.276,0.834c-0.406,0 -0.995,1.715 -1.486,4.324c-0.198,1.054 -0.687,2.638 -1.086,3.519c-0.399,0.88 -0.834,1.976 -0.966,2.434c-0.132,0.459 -0.395,0.834 -0.585,0.834c-0.19,0 -0.346,0.404 -0.346,0.899c0,0.495 -0.218,1.12 -0.485,1.389c-0.267,0.269 -0.95,1.441 -1.517,2.603c-0.568,1.163 -1.266,2.309 -1.552,2.546c-0.286,0.237 -0.52,0.655 -0.52,0.929c0,0.274 -0.551,1.049 -1.224,1.722c-1.425,1.425 -1.875,2.376 -1.295,2.735c0.238,0.147 -0.302,0.616 -1.28,1.113c-0.93,0.473 -2.114,1.322 -2.63,1.888c-0.516,0.565 -1.437,1.582 -2.045,2.261c-1.618,1.802 -2.023,4.151 -1.335,7.742c0.721,3.769 0.695,4.659 -0.185,6.383c-1.169,2.292 -4.284,5.796 -5.819,6.546c-1.516,0.74 -1.674,1.213 -0.604,1.799c0.372,0.204 0.795,0.537 0.941,0.741c0.152,0.214 2.276,0.37 5.031,0.37l4.768,0l2.931,-1.48c9.892,-4.995 16.518,-16.653 13.202,-23.228l-1.027,-2.034l0.702,-1.609c0.876,-2.008 1.961,-5.119 6.586,-18.871c2.021,-6.009 3.909,-11.509 4.196,-12.222c0.787,-1.957 7.022,-19.002 8.266,-22.593c2.564,-7.407 2.46,-10.336 -0.427,-12.028c-1.916,-1.123 -5.3,-1.269 -7.085,-0.305m6.303,1.816c2.34,1.533 1.728,4.399 -4.462,20.888c-1.568,4.176 -2.983,8.009 -3.144,8.518c-0.162,0.509 -1.152,3.343 -2.201,6.296c-1.049,2.954 -3.153,9.121 -4.675,13.704c-2.517,7.58 -4.539,13.314 -4.814,13.648c-0.058,0.072 -0.767,-0.401 -1.574,-1.05c-1.172,-0.941 -1.923,-1.221 -3.712,-1.383l-2.243,-0.204l1.156,-1.68c2.709,-3.937 7.832,-17.898 10.831,-29.516c0.736,-2.852 1.908,-7.352 2.604,-10c0.696,-2.648 1.611,-6.365 2.034,-8.26c2.35,-10.525 5.575,-13.991 10.2,-10.961m-254.662,35.081c-1.469,1.818 -9.089,12.556 -9.975,14.057l-0.788,1.337l1.228,0.215c2.391,0.421 18.142,1.876 18.245,1.687c0.142,-0.261 -7.339,-18.532 -7.573,-18.499c-0.102,0.014 -0.614,0.556 -1.137,1.203m19.469,0.529c0.772,5.05 0.774,18.926 0.005,23.889l-0.273,1.759l4.251,0l4.252,0l-0.335,-1.574c-0.861,-4.046 -0.831,-19.755 0.04,-21.165c1.992,-3.223 5.201,-3.765 6.611,-1.117c1.361,2.555 1.547,19.825 0.251,23.204c-0.206,0.536 0.265,0.62 4.054,0.722c3.829,0.103 4.265,0.051 4.093,-0.49c-0.511,-1.603 -0.906,-7.444 -0.908,-13.436l-0.003,-6.635l1.154,-1.798c2.496,-3.89 5.76,-4.398 7.056,-1.1c0.92,2.341 0.994,19.514 0.097,22.556c-0.244,0.83 -0.23,0.833 4.048,0.833l4.293,0l-0.406,-1.018c-0.23,-0.575 -0.533,-5.297 -0.696,-10.834c-0.4,-13.651 -1.299,-15.555 -7.338,-15.555c-3.512,0 -8.578,2.667 -8.578,4.516c0,0.228 -0.383,-0.32 -0.85,-1.217c-2.118,-4.071 -10.541,-4.348 -12.828,-0.422c-0.29,0.497 -0.376,0.245 -0.385,-1.118l-0.011,-1.759l-3.931,0l-3.931,0l0.268,1.759m79.683,-1.155c-5.112,1.57 -7.985,8.452 -5.204,12.463c0.944,1.362 1.934,1.991 7.708,4.896c8.076,4.064 9.127,5.468 6.341,8.474c-2.665,2.875 -5.934,1.293 -10.431,-5.048c-2.812,-3.965 -3.944,-3.649 -6.053,1.688c-0.986,2.495 -1.022,2.44 2.402,3.713c10.448,3.886 17.27,2.344 19.269,-4.358c1.601,-5.366 -0.036,-7.588 -7.738,-10.499c-7.416,-2.804 -9.768,-6.162 -6.56,-9.369c3.078,-3.078 6.886,-0.606 8.684,5.636c1.051,3.653 2.44,3.254 4.725,-1.359c1.768,-3.567 1.832,-3.35 -1.468,-5.007c-3.635,-1.827 -8.176,-2.305 -11.675,-1.23m28.366,-0.054c-11.97,3.367 -14.425,21.764 -3.611,27.055c5.089,2.489 15.223,1.454 18.35,-1.875c1.387,-1.476 0.476,-1.785 -1.364,-0.463c-4.709,3.381 -11.582,0.925 -14.751,-5.272l-0.855,-1.671l4.684,-2.935c14.609,-9.155 14.209,-8.747 11.55,-11.767c-2.753,-3.128 -8.961,-4.49 -14.003,-3.072m-67.343,2.69c0.14,1.172 0.391,6.151 0.56,11.065c0.363,10.623 0.837,12.365 3.777,13.864c3.516,1.794 9.927,0.641 12.263,-2.204l0.843,-1.026l0.741,1.292c1.977,3.449 10.556,3.796 10.556,0.428c0,-0.91 -0.031,-0.909 -1.652,0.048c-2.314,1.365 -2.423,1.013 -2.417,-7.771c0.006,-7.144 0.478,-15.69 0.949,-17.174c0.189,-0.596 -0.16,-0.651 -4.125,-0.651l-4.332,0l0.243,1.518c0.44,2.751 0.984,14.929 0.742,16.63c-0.919,6.489 -8.158,10.67 -10.178,5.879c-0.603,-1.431 -0.755,-15.621 -0.224,-20.972l0.304,-3.055l-4.152,0l-4.151,0l0.253,2.129m85.21,-1.296c0.468,2.069 0.937,8.965 0.937,13.785c0,8.224 0.907,11.164 3.878,12.574c3.15,1.495 9.063,0.487 11.603,-1.977l1.456,-1.414l0.594,1.346c1.446,3.278 8.539,3.758 10.393,0.704c0.625,-1.029 0.044,-1.124 -1.607,-0.263c-1.092,0.569 -1.667,0.692 -1.943,0.416c-0.409,-0.409 -0.159,-21.291 0.292,-24.43l0.227,-1.574l-4.162,0l-4.161,0l0.241,1.759c0.132,0.968 0.339,5.426 0.458,9.907l0.217,8.149l-1.497,2.29c-2.915,4.46 -7.142,5.403 -8.61,1.922c-0.593,-1.406 -0.766,-16.958 -0.239,-21.527l0.288,-2.5l-4.277,0c-4.244,0 -4.275,0.006 -4.088,0.833m-11.657,0.59c3.773,3.773 1.342,8.265 -7.112,13.14l-1.744,1.005l-0.428,-1.581c-0.671,-2.472 -0.266,-8.274 0.71,-10.178c1.741,-3.398 6.295,-4.665 8.574,-2.386m97.409,25.984c0,0.204 0.21,0.371 0.466,0.371c0.551,0 2.626,1.845 2.367,2.104c-0.097,0.098 -0.563,-0.029 -1.035,-0.281c-0.808,-0.433 -1.408,-0.504 -5.483,-0.652c-1.907,-0.07 -1.7,-0.554 0.583,-1.368c1.709,-0.609 3.102,-0.687 3.102,-0.174m-1.297,3.327c3.302,0.533 4.935,1.389 5.769,3.023c4.004,7.849 -8.503,22.35 -19.22,22.286c-3.374,-0.02 -5.054,-0.518 -3.458,-1.025c0.985,-0.313 4.344,-3.994 5.215,-5.715c1.149,-2.27 1.249,-3.582 0.554,-7.271c-1.417,-7.524 3.519,-12.53 11.14,-11.298" id="path0"/>
  <path fill-rule="evenodd" fill="#34a4e4" d="m32.10724,74.018c-1.142,0.354 -1.845,0.754 -1.666,0.949c0.178,0.195 0.12,0.229 -0.137,0.081c-0.633,-0.363 -2.375,0.138 -2.089,0.601c0.154,0.249 -0.096,0.301 -0.705,0.148c-0.678,-0.17 -1.006,-0.069 -1.171,0.359c-0.154,0.402 -0.527,0.538 -1.149,0.419c-0.507,-0.097 -0.922,-0.038 -0.922,0.131c0,0.169 -0.277,0.201 -0.616,0.071c-0.448,-0.171 -0.533,-0.102 -0.313,0.254c0.203,0.329 0.16,0.402 -0.129,0.224c-0.238,-0.147 -0.939,-0.015 -1.558,0.294c-0.619,0.309 -1.367,0.469 -1.662,0.355c-0.295,-0.113 -0.535,-0.063 -0.534,0.112c0.004,0.369 1.762,1.243 2.501,1.243c0.277,0 0.415,0.143 0.308,0.316c-0.177,0.286 1.172,1.126 1.642,1.023c0.106,-0.023 0.59,0.327 1.074,0.778c0.485,0.451 1.022,0.733 1.195,0.626c0.173,-0.106 0.314,-0.023 0.314,0.187c0,0.209 0.278,0.274 0.617,0.144c0.401,-0.154 0.527,-0.092 0.36,0.178c-0.316,0.511 1.1,1.326 1.681,0.967c0.242,-0.149 0.318,-0.095 0.18,0.13c-0.215,0.347 0.373,0.814 0.875,0.697c0.107,-0.025 0.59,0.323 1.074,0.775c0.485,0.451 1.023,0.733 1.195,0.626c0.173,-0.107 0.315,-0.023 0.315,0.186c0,0.21 0.233,0.292 0.518,0.182c0.285,-0.109 0.644,0.005 0.798,0.254c0.179,0.29 0.126,0.358 -0.148,0.189c-0.235,-0.145 -0.427,-0.176 -0.427,-0.067c0,0.226 1.752,1.167 3.194,1.716c0.972,0.369 0.974,0.366 0.377,-0.545c-0.33,-0.503 -0.501,-1.174 -0.38,-1.49c0.122,-0.317 0.093,-0.867 -0.064,-1.224c-0.287,-0.651 -0.403,-1.292 -0.489,-2.707c-0.025,-0.419 -0.182,-0.678 -0.349,-0.575c-0.167,0.103 -0.232,-0.303 -0.143,-0.904c0.099,-0.679 -0.004,-1.091 -0.274,-1.091c-0.239,0 -0.33,-0.169 -0.203,-0.376c0.275,-0.444 -0.493,-4.445 -0.966,-5.029c-0.18,-0.222 -0.217,-0.514 -0.083,-0.648c0.292,-0.292 0.405,-0.317 -2.041,0.441m74.73,9.513c-0.491,0.263 -1.013,0.404 -1.159,0.313c-0.4,-0.246 -1.41,1.906 -1.41,3.002c0,3.21 4.77,4.525 6.267,1.728c1.451,-2.712 -1.227,-6.365 -3.698,-5.043m-21.243,6.562c0.856,3.215 0.842,3.24 -1.696,3.24c-1.975,0 -2.222,0.083 -2.222,0.741c0,0.658 0.247,0.741 2.217,0.741l2.218,0l-0.088,10.278l-0.088,10.277l0.926,1.653c3.117,5.562 11.969,4.582 13.718,-1.519c0.519,-1.809 -0.337,-1.188 -1.27,0.92c-0.965,2.183 -1.547,2.593 -3.744,2.64c-1.725,0.036 -2.171,-0.314 -3.152,-2.475c-0.761,-1.677 -1.076,-13.978 -0.499,-19.498l0.238,-2.276l3.836,0c3.589,0 3.836,-0.048 3.836,-0.741c0,-0.694 -0.247,-0.741 -3.889,-0.741c-4.417,0 -4.264,0.147 -3.363,-3.24l0.518,-1.945l-4.007,0l-4.007,0l0.518,1.945m129.273,0.185c0.745,3.166 0.813,3.055 -1.895,3.055c-2.161,0 -2.407,0.076 -2.407,0.741c0,0.665 0.246,0.741 2.419,0.741l2.419,0l-0.245,9.352c-0.303,11.584 0.219,13.923 3.486,15.612c4.404,2.278 11.18,-0.496 11.18,-4.575c0,-1.308 -0.52,-0.815 -1.554,1.475c-1.052,2.329 -0.95,2.269 -4.002,2.366c-1.19,0.037 -2.453,-1.262 -2.943,-3.027c-0.419,-1.507 -0.539,-16.68 -0.155,-19.485l0.236,-1.718l3.839,0c3.591,0 3.838,-0.048 3.838,-0.741c0,-0.694 -0.247,-0.741 -3.889,-0.741c-4.439,0 -4.417,0.023 -3.369,-3.459l0.519,-1.726l-3.989,0l-3.989,0l0.501,2.13m-204.848,1.928c-0.12,0.195 -0.447,0.267 -0.725,0.16c-0.279,-0.107 -0.618,-0.014 -0.755,0.207c-0.136,0.221 -0.403,0.306 -0.593,0.189c-0.189,-0.117 -0.344,-0.027 -0.344,0.201c0,0.228 -0.144,0.325 -0.32,0.217c-0.645,-0.399 -3.692,3.109 -4.307,4.958c-1.804,5.433 -0.186,7.707 8.083,11.361c5.359,2.368 7.655,4.123 7.655,5.851c0,1.344 -1.06,3.539 -1.709,3.539c-0.283,0 -0.514,0.139 -0.514,0.309c0,0.169 -0.208,0.321 -0.462,0.337c-0.255,0.016 -1,0.105 -1.655,0.197c-0.656,0.092 -1.286,0.075 -1.4,-0.04c-0.114,-0.114 -0.491,-0.249 -0.838,-0.3c-0.347,-0.051 -0.69,-0.268 -0.761,-0.483c-0.072,-0.215 -0.29,-0.39 -0.485,-0.39c-0.68,0 -4.399,-4.339 -4.399,-5.131c0,-0.234 -0.166,-0.425 -0.37,-0.425c-0.204,0 -0.37,-0.189 -0.37,-0.421c0,-0.605 -1.84,-2.223 -2.244,-1.973c-0.535,0.331 -2.121,3.187 -2.734,4.924l-0.557,1.579l1.63,0.699c6.317,2.708 11.886,3.451 15.016,2.003c4.179,-1.933 6.63,-6.9 5.226,-10.593c-0.328,-0.863 -2.634,-3.561 -2.634,-3.083c0,0.138 -0.263,-0.012 -0.585,-0.334c-0.322,-0.322 -0.724,-0.5 -0.894,-0.395c-0.17,0.105 -0.365,0.039 -0.433,-0.148c-0.069,-0.186 -0.458,-0.395 -0.865,-0.465c-0.408,-0.069 -0.832,-0.247 -0.942,-0.395c-0.111,-0.147 -0.611,-0.343 -1.111,-0.435c-0.501,-0.092 -0.952,-0.2 -1.003,-0.241c-0.051,-0.041 -0.259,-0.116 -0.463,-0.166c-0.204,-0.051 -0.495,-0.134 -0.648,-0.183c-0.153,-0.05 -0.403,-0.071 -0.556,-0.047c-0.152,0.025 -0.277,-0.122 -0.277,-0.326c0,-0.204 -0.125,-0.352 -0.278,-0.33c-0.578,0.083 -1.945,-0.512 -1.945,-0.846c0,-0.192 -0.136,-0.265 -0.304,-0.161c-1.431,0.884 -3.112,-4.447 -2.085,-6.611c2.103,-4.432 7.577,-2.274 9.584,3.777c1.461,4.406 2.143,4.345 4.539,-0.408l1.281,-2.541l-0.83,-0.883c-0.456,-0.486 -0.904,-0.808 -0.996,-0.717c-0.091,0.091 -0.409,-0.077 -0.707,-0.375c-0.298,-0.298 -0.695,-0.447 -0.882,-0.331c-0.187,0.116 -0.34,0.047 -0.34,-0.152c0,-0.33 -1.77,-0.934 -2.845,-0.972c-0.24,-0.008 -0.559,-0.138 -0.709,-0.288c-0.403,-0.403 -4.885,-0.332 -5.14,0.081m28.508,0.018c-0.115,0.185 -0.424,0.253 -0.688,0.152c-0.264,-0.101 -0.967,0.016 -1.562,0.261c-0.596,0.245 -1.208,0.419 -1.361,0.386c-0.152,-0.033 -0.277,0.116 -0.277,0.332c0,0.216 -0.163,0.292 -0.361,0.17c-0.198,-0.123 -0.652,0.117 -1.008,0.533c-0.356,0.416 -0.761,0.757 -0.899,0.757c-0.778,0 -3.256,3.078 -4.407,5.475c-5.371,11.179 2.833,21.935 15.388,20.173c3.661,-0.514 9.103,-3.136 8.262,-3.981c-0.136,-0.136 -0.594,0.1 -1.019,0.524c-0.424,0.425 -0.844,0.772 -0.932,0.772c-0.089,0 -0.631,0.185 -1.204,0.412c-1.185,0.469 -6.043,0.659 -6.043,0.236c0,-0.153 -0.416,-0.278 -0.926,-0.278c-0.509,0 -0.925,-0.155 -0.925,-0.345c0,-0.19 -0.341,-0.454 -0.757,-0.586c-1.673,-0.531 -6.26,-6.658 -5.51,-7.36c0.086,-0.08 3.405,-2.187 7.378,-4.683c10.449,-6.564 10.448,-6.564 10.152,-7.518c-0.138,-0.442 -0.395,-0.86 -0.572,-0.928c-0.176,-0.068 -0.321,-0.276 -0.321,-0.463c0,-0.426 -1.374,-1.821 -1.795,-1.821c-0.172,0 -0.615,-0.334 -0.985,-0.743c-0.37,-0.408 -0.755,-0.66 -0.857,-0.558c-0.101,0.101 -0.407,-0.002 -0.681,-0.229c-0.273,-0.226 -0.497,-0.288 -0.497,-0.136c0,0.152 -0.243,0.074 -0.539,-0.172c-0.297,-0.246 -0.702,-0.347 -0.901,-0.224c-0.198,0.122 -0.458,0.065 -0.577,-0.128c-0.278,-0.449 -5.301,-0.477 -5.576,-0.03m16.589,1.387c0.502,2.308 0.518,20.779 0.021,23.519l-0.386,2.129l3.959,0l3.959,0l-0.32,-1.759c-0.177,-0.968 -0.423,-5.965 -0.548,-11.104l-0.226,-9.345l1.448,-1.449c3.273,-3.272 6.628,-2.859 7.801,0.959c0.704,2.294 0.984,17.115 0.396,20.939l-0.271,1.759l3.856,0l3.856,0l-0.36,-1.203c-0.198,-0.662 -0.505,-5.371 -0.681,-10.463c-0.374,-10.805 -1.434,-14.65 -4.147,-15.047c-0.174,-0.025 -0.469,-0.067 -0.655,-0.092c-0.187,-0.026 -0.465,-0.172 -0.618,-0.324c-0.405,-0.406 -4.146,-0.341 -4.403,0.076c-0.121,0.195 -0.447,0.267 -0.725,0.16c-0.279,-0.107 -0.618,-0.014 -0.755,0.207c-0.136,0.221 -0.403,0.306 -0.593,0.189c-0.189,-0.117 -0.345,-0.027 -0.345,0.201c0,0.228 -0.166,0.311 -0.37,0.185c-0.204,-0.126 -0.37,-0.024 -0.37,0.225c0,0.25 -0.098,0.357 -0.216,0.238c-0.119,-0.119 -0.536,0.104 -0.926,0.494c-1.069,1.069 -1.451,0.866 -1.451,-0.772l0,-1.481l-3.656,0l-3.656,0l0.382,1.759m60.029,-0.926c1.034,3.879 1.032,20.753 -0.003,25.556l-0.219,1.018l3.974,0l3.974,0l-0.251,-1.203c-0.69,-3.315 -0.67,-21.039 0.024,-21.807c0.514,-0.567 0.546,-0.719 0.132,-0.628c-0.437,0.096 -0.521,-0.265 -0.426,-1.825l0.119,-1.944l-3.773,0c-3.732,0 -3.771,0.009 -3.551,0.833m12.679,-0.562c-0.133,0.133 -0.583,0.294 -1.001,0.358c-1.036,0.158 -2.184,0.803 -2.184,1.228c0,0.2 0.396,0.169 0.924,-0.072c1.36,-0.62 3.637,0.142 4.214,1.409c1.207,2.648 1.545,19.45 0.464,23.01l-0.365,1.203l3.909,0l3.909,0l-0.286,-1.203c-0.158,-0.662 -0.389,-5.204 -0.515,-10.093c-0.246,-9.594 -0.106,-10.534 1.839,-12.346c0.641,-0.597 0.671,-0.742 0.196,-0.925c-0.643,-0.246 -1.537,0.516 -1.883,1.606c-0.329,1.038 -0.663,0.923 -1.265,-0.439c-0.6,-1.354 -2.343,-3.29 -3.061,-3.399c-0.268,-0.04 -0.654,-0.174 -0.858,-0.298c-0.508,-0.307 -3.737,-0.338 -4.037,-0.039m56.566,1.858c0.484,2.721 0.484,19.913 -0.001,22.963l-0.369,2.315l3.964,0l3.963,0l-0.347,-1.574c-0.191,-0.866 -0.438,-5.88 -0.55,-11.142l-0.204,-9.569l1.424,-1.458c0.783,-0.802 1.631,-1.378 1.884,-1.281c0.792,0.304 0.915,-0.473 0.14,-0.888c-0.592,-0.317 -0.808,-0.257 -1.11,0.306c-0.741,1.386 -1.974,1.284 -1.807,-0.149c0.184,-1.575 -0.008,-1.652 -4.12,-1.652l-3.247,0l0.38,2.129m88.235,-1.797c-0.143,0.231 -0.396,0.337 -0.562,0.234c-0.453,-0.28 -2.61,0.558 -2.61,1.013c0,0.218 -0.097,0.299 -0.215,0.18c-0.314,-0.314 -3.142,2.7 -3.558,3.793c-2.19,5.75 -0.495,8.357 7.835,12.051c6.234,2.765 7.989,4.233 7.694,6.435c-0.694,5.172 -7.115,4.984 -10.644,-0.311c-0.306,-0.458 -0.931,-1.276 -1.389,-1.817c-0.458,-0.541 -0.833,-1.101 -0.833,-1.243c0,-0.142 -0.424,-0.715 -0.941,-1.273l-0.94,-1.015l-0.914,0.913c-0.502,0.503 -1.225,1.742 -1.607,2.755c-0.382,1.013 -0.815,2.132 -0.962,2.487c-0.421,1.01 6.452,3.601 11.011,4.151c8.064,0.973 14.205,-7.654 9.318,-13.09c-0.936,-1.041 -1.839,-1.808 -2.006,-1.704c-0.167,0.103 -0.363,0.011 -0.435,-0.205c-0.072,-0.216 -0.378,-0.434 -0.68,-0.483c-0.301,-0.05 -0.927,-0.299 -1.389,-0.553c-0.463,-0.254 -1.005,-0.361 -1.204,-0.238c-0.2,0.123 -0.363,0.048 -0.363,-0.168c0,-0.216 -0.125,-0.373 -0.278,-0.348c-0.152,0.024 -0.402,0.003 -0.555,-0.047c-0.153,-0.049 -0.403,-0.124 -0.556,-0.166c-0.152,-0.043 -1.111,-0.466 -2.129,-0.941c-1.019,-0.475 -1.97,-0.838 -2.115,-0.808c-1.278,0.271 -2.818,-4.376 -2.135,-6.445c1.612,-4.884 7.729,-2.725 9.778,3.451c1.469,4.431 2.256,4.318 4.668,-0.666l1.269,-2.625l-0.907,-0.684c-0.5,-0.377 -1.038,-0.605 -1.196,-0.507c-0.159,0.098 -0.288,0.013 -0.288,-0.189c0,-0.301 -0.722,-0.685 -1.852,-0.986c-0.102,-0.027 -0.685,-0.265 -1.296,-0.529c-1.529,-0.659 -6.675,-0.97 -7.014,-0.422m-230.196,1.341c2.846,1.472 3.277,6.476 0.762,8.848c-2.28,2.151 -2.637,2.442 -2.997,2.442c-0.204,0 -0.37,0.166 -0.37,0.37c0,0.204 -0.255,0.371 -0.567,0.371c-0.312,0 -0.663,0.25 -0.781,0.555c-0.117,0.306 -0.433,0.556 -0.702,0.556c-0.27,0 -0.752,0.262 -1.072,0.582c-0.32,0.32 -0.582,0.477 -0.582,0.349c0,-0.128 -0.37,0.027 -0.823,0.344c-1.398,0.979 -1.681,0.706 -2.151,-2.081c-1.499,-8.886 3.391,-15.383 9.283,-12.336m61.731,2.308c0.377,3.691 0.379,15.573 0.002,20l-0.291,3.426l3.942,0c3.444,0 3.913,-0.074 3.717,-0.586c-0.974,-2.537 -1.167,-19.703 -0.272,-24.136l0.318,-1.574l-3.854,0l-3.855,0l0.293,2.87m73.071,-1.018c-0.407,0.407 -0.831,0.723 -0.942,0.702c-0.181,-0.034 -2.407,0.785 -2.695,0.992c-0.065,0.047 0.077,0.397 0.315,0.779c0.769,1.231 -0.199,3.701 -2.264,5.777c-1.002,1.007 -1.826,1.687 -1.832,1.512c-0.007,-0.175 -0.182,-0.026 -0.389,0.33c-0.208,0.357 -0.602,0.649 -0.875,0.649c-0.274,0 -0.598,0.26 -0.72,0.579c-0.122,0.318 -0.365,0.49 -0.539,0.383c-0.174,-0.108 -0.676,0.138 -1.114,0.546c-0.438,0.409 -0.797,0.639 -0.797,0.513c0,-0.127 -0.555,0.113 -1.233,0.533l-1.234,0.762l-0.433,-2.349c-0.749,-4.063 -0.318,-8.807 0.91,-10.036c0.472,-0.471 0.37,-0.609 -0.817,-1.105c-1.512,-0.632 -2.146,-0.721 -1.862,-0.261c0.104,0.168 -0.376,0.838 -1.066,1.489c-5.039,4.754 -5.088,16.418 -0.086,20.649c4.267,3.609 12.316,4.464 17.734,1.883c2.287,-1.089 3.926,-2.316 3.57,-2.671c-0.135,-0.136 -0.841,0.228 -1.568,0.808c-0.727,0.58 -1.489,1.075 -1.692,1.101c-0.204,0.025 -0.412,0.074 -0.463,0.109c-0.508,0.345 -5.547,0.028 -6.581,-0.415c-2.811,-1.202 -6.918,-5.718 -7.006,-7.704c-0.015,-0.334 3.227,-2.601 8.126,-5.683c4.483,-2.82 8.487,-5.404 8.897,-5.741l0.747,-0.613l-0.79,-1.481c-1.52,-2.854 -2.116,-3.222 -3.301,-2.037m27.681,0.092c-0.138,0.357 -0.464,0.646 -0.725,0.643c-0.334,-0.004 -0.31,-0.117 0.081,-0.382c0.398,-0.269 0.241,-0.294 -0.555,-0.087c-0.611,0.159 -1.82,0.289 -2.685,0.289c-1.051,0 -1.575,0.162 -1.575,0.485c0,0.267 0.149,0.393 0.33,0.282c1.027,-0.635 1.476,17.074 0.556,21.919l-0.229,1.203l3.788,0l3.788,0l-0.227,-1.203c-0.125,-0.662 -0.381,-5.287 -0.57,-10.278c-0.34,-8.995 -1.232,-14.803 -1.977,-12.871m-55.043,0.242c-0.302,0.192 -0.393,0.529 -0.223,0.828c0.212,0.374 0.173,0.4 -0.152,0.102c-0.561,-0.515 -3.819,0.257 -4.054,0.961c-0.1,0.299 0.041,0.408 0.366,0.283c0.638,-0.245 0.673,17.173 0.04,20.177l-0.371,1.759l3.884,0c3.859,0 3.883,-0.005 3.623,-0.833c-0.144,-0.458 -0.397,-5.083 -0.564,-10.278c-0.38,-11.888 -0.814,-14.098 -2.549,-12.999m107.974,4.048c-0.337,0.373 -0.488,0.816 -0.335,0.985c0.153,0.169 0.083,0.195 -0.156,0.058c-0.572,-0.328 -2.384,0.505 -2.1,0.965c0.13,0.21 -0.091,0.257 -0.536,0.116c-1.108,-0.352 -1.156,-0.118 -1.299,6.312c-0.155,7.016 -1.477,10.886 -3.717,10.886c-0.271,0 -0.608,0.114 -0.747,0.253c-0.372,0.372 -4.687,0.413 -4.913,0.047c-0.106,-0.172 -0.348,-0.217 -0.538,-0.099c-0.19,0.117 -0.345,0.026 -0.345,-0.201c0,-0.228 -0.142,-0.327 -0.316,-0.219c-0.412,0.254 -1.536,-1.068 -2.466,-2.9c-0.643,-1.267 -0.736,-2.195 -0.736,-7.314l0,-5.863l-0.926,-0.008c-1.164,-0.011 -3.726,-1.159 -4.397,-1.971c-0.28,-0.338 -0.697,-0.612 -0.926,-0.609c-0.268,0.004 -0.285,0.104 -0.048,0.278c0.204,0.15 0.618,0.606 0.92,1.013c0.54,0.728 0.536,0.729 -0.254,0.056c-1.062,-0.904 -1.41,0.56 -1.398,5.87c0.018,7.466 4.285,12.395 11.735,13.555c10.929,1.701 18.287,-7.654 15.245,-19.383c-0.705,-2.718 -0.826,-2.845 -1.747,-1.827" id="path1"/>
  <path fill-rule="evenodd" fill="#0454a4" d="m244.05824,0.912c-0.797,1.217 -0.794,3.743 0.007,5.84c1.356,3.552 0.254,10.116 -1.649,9.817c-1.495,-0.235 -3.572,-7.657 -3.222,-11.515c0.236,-2.605 -0.231,-3.837 -1.551,-4.096c-5.355,-1.048 -6.637,-0.514 -7.19,2.998c-0.164,1.04 0.529,6.299 0.992,7.525c0.155,0.411 -0.681,0.98 -3.206,2.181c-1.878,0.894 -4.393,2.288 -5.587,3.098l-2.172,1.473l-2.057,-0.413c-1.131,-0.227 -3.237,-0.417 -4.679,-0.421l-2.624,-0.009l-0.807,-1.837c-0.444,-1.011 -0.694,-1.907 -0.556,-1.991c0.337,-0.203 4.746,-1.273 6.319,-1.532c1.799,-0.296 4.65,0.736 5.167,1.871c0.504,1.106 1.544,1.216 1.544,0.163c0,-1.257 -2.091,-4.983 -3.482,-6.204l-1.309,-1.15l2.117,-0.974c1.458,-0.671 2.291,-0.868 2.674,-0.633c0.718,0.443 3.26,5.463 3.557,7.027c0.249,1.311 0.562,1.485 1.228,0.683c1.028,-1.238 -3.145,-9.48 -4.799,-9.48c-1.544,0 -6.283,2.662 -6.283,3.529c0,0.162 0.475,0.726 1.055,1.253c0.58,0.528 1.349,1.417 1.708,1.976l0.654,1.017l-2.187,-0.228c-2.187,-0.229 -7.962,0.907 -8.798,1.731c-0.76,0.748 -0.42,2.638 0.976,5.435c0.383,0.768 0.655,0.823 3.996,0.811c1.972,-0.007 4.027,0.098 4.566,0.233l0.98,0.246l-1.209,1.536c-2.455,3.12 -4.201,7.842 -5.196,14.055c-0.285,1.781 -0.779,3.526 -1.097,3.877c-4.826,5.337 -4.546,24.529 0.358,24.529c0.279,0 0.491,0.407 0.491,0.945c0,1.078 0.858,2.889 1.897,4.005c0.39,0.417 0.865,1.35 1.057,2.071c0.192,0.722 0.591,2.229 0.886,3.35c1.732,6.572 4.736,10.952 13.104,19.108c4.121,4.015 8.471,5.617 14.63,5.388c1.581,-0.059 1.845,-0.598 0.463,-0.945c-1.349,-0.338 -1.133,-1.233 0.458,-1.897c2.633,-1.101 5.654,-5.358 3.801,-5.358c-0.204,0 -0.37,0.191 -0.37,0.425c0,0.677 -2.6,3.664 -3.855,4.429c-1.893,1.155 -2.174,0.793 -0.534,-0.687c0.846,-0.764 1.773,-1.949 2.06,-2.633c0.572,-1.368 0.29,-2.153 -0.351,-0.975c-0.886,1.627 -3.581,3.847 -5.163,4.252c-0.881,0.226 -1.791,0.473 -2.022,0.549c-0.23,0.077 -0.897,-0.395 -1.481,-1.048c-0.584,-0.653 -1.728,-1.682 -2.542,-2.287c-1.791,-1.33 -2.604,-2.251 -3.177,-3.599c-0.636,-1.498 -1.221,-1.272 -0.957,0.37c0.149,0.927 0.108,1.205 -0.122,0.837c-0.279,-0.449 -0.433,-0.464 -0.818,-0.079c-0.81,0.81 -6.408,-5.466 -7.2,-8.073c-0.811,-2.668 -0.807,-7.824 0.006,-9.767c0.705,-1.684 0.709,-1.714 0.237,-1.714c-1.046,0 -1.978,3.152 -1.963,6.641c0.014,3.121 -0.037,3.397 -0.482,2.592c-0.328,-0.592 -0.507,-2.294 -0.523,-4.974c-0.026,-4.269 -0.482,-4.677 -1.105,-0.989c-0.253,1.502 -0.295,1.29 -0.319,-1.603c-0.026,-3.174 0.265,-5.523 0.859,-6.945c0.157,-0.374 0.11,-0.648 -0.112,-0.648c-0.479,0 -1.909,3.754 -1.944,5.107c-0.023,0.888 -0.111,0.812 -0.764,-0.662c-0.406,-0.917 -1.049,-2 -1.428,-2.408c-1.29,-1.385 -1.293,-2.528 -0.008,-3.092c0.626,-0.274 2.258,-1.785 3.627,-3.358c3.418,-3.927 4.486,-4.696 5.169,-3.721c0.28,0.4 0.729,0.727 0.998,0.727c0.607,0 1.4,0.908 1.077,1.232c-0.131,0.131 -0.458,-0.051 -0.726,-0.405c-0.436,-0.573 -0.489,-0.514 -0.5,0.558c-0.007,0.783 -0.451,1.777 -1.275,2.856c-2.378,3.116 -1.74,7.201 0.872,5.586c0.663,-0.409 0.433,-0.88 -0.332,-0.68c-1.521,0.398 -1.322,-2.356 0.307,-4.24c0.97,-1.122 1.157,-1.054 1.157,0.418c0,0.688 0.254,1.461 0.565,1.719c0.793,0.658 1.023,0.261 0.507,-0.873c-0.334,-0.731 -0.337,-1.465 -0.014,-3.072c0.587,-2.922 0.582,-2.941 -0.872,-3.84c-1.64,-1.013 -1.629,-1.105 0.301,-2.465c2.542,-1.792 3.923,-7.053 2.534,-9.65c-0.219,-0.409 -0.233,-0.918 -0.036,-1.27c0.197,-0.352 0.157,-1.873 -0.098,-3.783c-1.661,-12.414 5.915,-19.923 20.112,-19.934c4.005,-0.003 4.493,0.078 7.223,1.202c3.978,1.639 4.795,2.196 3.217,2.196c-0.644,0 -2.306,0.253 -3.693,0.562c-1.388,0.309 -2.898,0.646 -3.357,0.748c-0.668,0.149 -0.833,0.44 -0.833,1.468c0,1.405 -0.051,1.432 -3.478,1.828c-5.165,0.596 -7.996,3.678 -8.001,8.709c-0.002,1.11 -0.141,1.86 -0.31,1.667c-0.548,-0.626 -1.174,-3.355 -1.174,-5.117c0,-0.944 -0.167,-1.717 -0.37,-1.717c-0.204,0 -0.387,0.959 -0.408,2.13c-0.027,1.577 -0.11,1.89 -0.318,1.204c-0.155,-0.51 -0.197,-1.407 -0.092,-1.994c0.142,-0.805 0.061,-1.026 -0.33,-0.898c-1.472,0.484 -0.19,6.792 1.781,8.763c0.572,0.573 0.655,0.524 -3.226,1.911c-1.84,0.657 -2.559,1.371 -1.709,1.697c0.88,0.338 8.679,-2.742 8.902,-3.515c0.095,-0.327 0.272,-1.427 0.395,-2.446c0.452,-3.764 0.621,-4.302 1.749,-5.587c1.104,-1.258 3.519,-2.712 5.478,-3.298c1.413,-0.422 2.222,-1.307 2.222,-2.432c0,-0.912 0.181,-1.055 1.759,-1.398c4.124,-0.896 4.01,-0.914 3.885,0.612c-0.117,1.445 0.52,3.051 1.317,3.314c0.343,0.113 0.413,-0.103 0.247,-0.764c-0.44,-1.755 -0.354,-4.089 0.157,-4.26c0.363,-0.121 0.433,0.114 0.267,0.899c-0.251,1.195 0.325,2.585 0.667,1.608c0.105,-0.3 0.254,-1.129 0.331,-1.842c0.105,-0.968 0.155,-0.811 0.2,0.622c0.033,1.072 0.287,2.145 0.576,2.434c0.284,0.285 0.575,1.306 0.648,2.269l0.131,1.752l-2.582,1.091c-1.42,0.6 -2.76,1.091 -2.978,1.091c-1.48,0 -4.611,4.738 -4.82,7.293c-0.316,3.885 -5.307,7.893 -9.828,7.893c-1.414,0 -1.418,-0.005 -1.037,-1.1c0.652,-1.87 3.304,-4.181 4.036,-3.518c1.307,1.183 5.913,-0.004 5.913,-1.524c0,-0.704 -0.264,-0.663 -1.38,0.216c-1.754,1.379 -5,0.787 -3.685,-0.672c0.868,-0.964 1.197,-2.662 0.516,-2.662c-0.306,0 -0.659,0.375 -0.784,0.834c-0.272,0.992 -1.015,1.877 -3.004,3.578c-1.828,1.562 -2.769,2.924 -2.772,4.014c-0.002,0.679 -0.209,0.834 -1.113,0.834c-1.395,0 -1.518,0.995 -0.165,1.334c7.225,1.813 13.257,-2.543 17.403,-12.567l1.045,-2.528l1.321,0.247c1.611,0.3 1.397,0.036 1.803,2.225l0.341,1.844l0.289,-1.602c0.498,-2.762 1.491,-1.148 1.443,2.345c-0.02,1.513 0.093,2.671 0.251,2.573c0.56,-0.346 1.16,-2.841 0.944,-3.923c-0.27,-1.347 0.28,-1.098 1.107,0.502c0.509,0.984 0.528,1.443 0.136,3.287c-0.51,2.408 -0.346,3.521 0.684,4.627c3.169,3.402 1.218,6.971 -4.195,7.675c-1.906,0.248 -5.242,-3.275 -3.95,-4.172c0.602,-0.418 1.543,-2.058 1.543,-2.691c0,-0.938 -0.7,-0.814 -1.082,0.191c-0.177,0.466 -0.602,1.08 -0.943,1.363c-0.574,0.477 -0.573,0.417 0.01,-0.805c0.498,-1.046 0.574,-1.829 0.366,-3.771c-0.363,-3.396 -0.909,-3.28 -1.53,0.327c-0.652,3.792 -2.308,5.53 -5.157,5.415c-1.668,-0.068 -1.988,0.016 -1.813,0.473c0.323,0.842 3.76,1.497 5.433,1.035c0.757,-0.209 1.444,-0.269 1.527,-0.133c2.34,3.831 2.364,4.079 0.596,6.218c-1.695,2.052 -1.947,3.678 -0.738,4.772c0.793,0.718 1.543,0.469 0.806,-0.268c-0.738,-0.737 -0.5,-2.325 0.488,-3.253l0.926,-0.87l0,1.125c0,0.692 0.427,1.663 1.111,2.523c1.22,1.535 1.374,2.583 0.543,3.682c-0.691,0.914 -0.697,1.688 -0.013,1.688c1.857,0 2.653,-4.056 1.147,-5.845l-0.915,-1.087l0.97,0.106c1.149,0.126 1.588,0.711 1.595,2.126c0.004,0.598 0.163,0.943 0.376,0.812c0.204,-0.126 0.371,-0.699 0.371,-1.273c0,-0.574 0.229,-1.234 0.509,-1.467c0.28,-0.232 0.638,-1.128 0.795,-1.99c0.283,-1.552 0.288,-1.556 0.542,-0.456l0.256,1.111l0.285,-1.017c0.157,-0.56 0.192,-1.26 0.079,-1.555c-0.138,-0.36 -0.029,-0.47 0.33,-0.332c0.297,0.114 0.562,-0.019 0.594,-0.297c0.109,-0.971 0.21,-1.261 1.184,-3.383c1.182,-2.577 1.249,-4.407 0.215,-5.858l-0.766,-1.076l1.248,0c1.18,0 2.136,-0.531 2.136,-1.185c0,-0.431 -1.094,-0.336 -2.685,0.232l-1.389,0.495l0.005,-1.345c0.007,-1.854 0.357,-2.99 0.865,-2.809c0.758,0.269 4.435,-0.746 4.61,-1.273c0.182,-0.544 -3.085,-0.445 -4.461,0.135c-0.398,0.168 -0.649,0.111 -0.649,-0.148c0,-0.232 0.292,-0.518 0.649,-0.636c4.798,-1.585 6.173,-3.233 4.51,-5.403c-1.761,-2.297 -2.106,-2.52 -3.252,-2.104c-1.692,0.616 -4.665,2.262 -5.131,2.842c-0.394,0.49 -0.628,0.47 -1.985,-0.168l-1.538,-0.724l1.8,-0.694c0.99,-0.382 2.267,-0.648 2.838,-0.591c3.09,0.306 6.168,-7.696 3.993,-10.379c-0.643,-0.795 -0.995,-0.875 -3.849,-0.875c-2.386,0 -3.306,-0.146 -3.828,-0.608c-0.72,-0.636 -4.389,-2.162 -7.07,-2.939c-3.139,-0.911 -2.661,-3.758 1.262,-7.512c1.52,-1.454 3.118,-3.215 3.55,-3.913l0.785,-1.27l-1.819,-1.601c-2.249,-1.978 -2.952,-1.994 -5.226,-0.113c-2.033,1.68 -2.119,1.627 -2.54,-1.581l-0.231,-1.759l-2.376,0c-2.116,0 -2.442,0.1 -2.974,0.912m4.464,1.958c0.53,3.532 1.611,3.931 4.265,1.574c1.992,-1.769 2.06,-1.776 3.677,-0.394c1.508,1.289 1.59,1.122 -2.553,5.209c-2.834,2.795 -3.717,4.412 -3.717,6.802c0,0.838 -0.158,0.976 -1.111,0.976c-1.718,0 -1.519,-3.091 0.437,-6.784c0.792,-1.494 0.687,-2.143 -0.224,-1.387c-1.128,0.936 -2.183,3.799 -2.213,6.004c-0.017,1.192 -0.136,2.167 -0.265,2.167c-0.129,0 -0.797,0.109 -1.485,0.242c-1.223,0.236 -1.236,0.226 -0.601,-0.494c1.503,-1.701 1.715,-7.18 0.444,-11.468c-0.851,-2.875 -0.27,-4.206 1.837,-4.206c1.202,0 1.254,0.062 1.509,1.759m-11.647,-0.6c1.345,0.403 1.382,0.458 1.013,1.515c-0.783,2.246 0.313,8.697 2.086,12.279c0.959,1.938 0.98,2.313 0.114,1.98c-1.205,-0.462 -2.857,-6.845 -2.857,-11.036c0,-2.607 -0.533,-3.703 -0.965,-1.982c-0.136,0.54 -0.154,2.212 -0.04,3.716c0.202,2.665 0.188,2.724 -0.548,2.331c-0.415,-0.222 -1.226,-0.335 -1.802,-0.25c-1.231,0.181 -1.86,-1.62 -1.951,-5.583c-0.076,-3.324 1.204,-4.092 4.95,-2.97m18.496,2.801c-0.004,0.368 -0.334,1.086 -0.732,1.596c-1.162,1.485 -0.9,2.142 0.37,0.926c1.096,-1.05 1.463,-2.517 0.741,-2.963c-0.204,-0.126 -0.374,0.072 -0.379,0.441m-33.197,2.059c1.02,1.353 2.094,4.269 2.094,5.683c0,0.528 0.161,0.835 0.371,0.706c1.421,-0.879 -1.068,-7.593 -2.816,-7.593c-0.422,0 -0.337,0.29 0.351,1.204m13.215,6.042c0.752,1.979 0.251,6.828 -0.705,6.828c-0.88,0 -1.694,-6.746 -0.91,-7.531c0.528,-0.527 1.269,-0.204 1.615,0.703m-2.567,6.933c0.549,1.021 0.532,1.052 -1.914,3.518c-3.474,3.503 -4.163,5.383 -4.34,11.837c-0.108,3.942 -0.019,5.136 0.455,6.086c0.41,0.822 0.466,1.258 0.184,1.432c-0.291,0.18 -0.278,0.89 0.044,2.528c0.618,3.142 -0.107,5.066 -2.577,6.84c-1.68,1.207 -1.76,1.228 -1.605,0.417c0.19,-0.991 -0.954,-3.133 -1.671,-3.133c-0.393,0 -0.401,0.163 -0.041,0.833c0.544,1.011 1.057,3.611 0.712,3.611c-0.136,0 -0.97,0.708 -1.854,1.574l-1.607,1.574l0.264,-1.111c0.936,-3.94 0.359,-5.019 -0.688,-1.287c-1.287,4.588 -1.659,4.996 -1.425,1.565c0.254,-3.735 -0.417,-4.218 -0.791,-0.57c-0.243,2.373 -1.331,4.922 -2.1,4.922c-0.515,0 -0.409,-2.365 0.252,-5.626c0.353,-1.742 0.478,-3.327 0.309,-3.926c-0.386,-1.375 -1.257,2.565 -1.537,6.959c-0.135,2.11 -0.299,2.904 -0.498,2.408c-0.518,-1.297 -0.382,-5.482 0.216,-6.63c0.718,-1.376 0.336,-1.786 -0.559,-0.599c-0.731,0.968 -1.101,2.342 -1.14,4.219c-0.023,1.149 -0.026,1.151 -0.4,0.232c-0.208,-0.509 -0.284,-1.634 -0.169,-2.5c0.136,-1.029 0.067,-1.574 -0.202,-1.574c-0.955,0 -0.163,-8.124 1.048,-10.741c3.421,-7.395 10.161,-10.319 12.728,-5.522c0.208,0.389 0.622,0.707 0.921,0.707c1.445,0 -0.23,-2.705 -2.206,-3.564c-0.831,-0.36 -1.563,-0.688 -1.626,-0.729c-0.243,-0.154 1.564,-5.632 2.598,-7.874c0.597,-1.293 0.976,-2.46 0.843,-2.592c-0.681,-0.678 -2.846,3.945 -3.92,8.37c-0.568,2.341 -2.113,3.024 -1.675,0.741c0.237,-1.236 3.101,-7.214 4.169,-8.704c0.84,-1.171 0.098,-1.039 -1.044,0.185c-1.734,1.86 -4.374,7.633 -4.374,9.564c0,0.267 -0.178,0.595 -0.395,0.729c-2.242,1.386 1.519,-8.688 4.388,-11.755c1.763,-1.885 1.785,-2.104 0.123,-1.245c-2.556,1.322 -5.968,8.4 -5.968,12.38c0,0.952 -0.22,1.49 -0.741,1.816c-0.89,0.555 -0.891,0.537 -0.165,-2.298c2.642,-10.3 5.163,-13.621 13.684,-18.024l3.333,-1.722l0.204,2.824c0.112,1.553 0.453,3.288 0.757,3.855m-19.48,-5.493c-0.203,0.076 -0.848,0.244 -1.432,0.374c-1.686,0.374 -0.935,0.595 2.406,0.709c2.21,0.076 3.576,0.33 4.758,0.887c1.85,0.872 2.287,0.799 1.359,-0.227c-0.897,-0.991 -5.844,-2.207 -7.091,-1.743m25.189,2.802c0.556,1.075 0.545,1.131 -0.268,1.439c-1.032,0.39 -0.961,0.499 -0.754,-1.168c0.21,-1.678 0.284,-1.698 1.022,-0.271m28.787,6.062c1.051,1.594 -1.236,7.265 -2.929,7.265c-0.842,0 -0.647,-4.91 0.267,-6.701c0.767,-1.503 1.887,-1.741 2.662,-0.564m-4.177,-0.235c-0.009,0.153 -0.239,1.111 -0.51,2.129l-0.494,1.852l-0.138,-2.13c-0.119,-1.834 -0.048,-2.13 0.51,-2.13c0.356,0.001 0.641,0.126 0.632,0.279m-19.388,2.772c-1.756,0.465 -5.04,3.493 -5.04,4.648c0,0.556 0.167,0.733 0.555,0.584c0.306,-0.117 0.556,-0.437 0.556,-0.711c0,-0.828 3.228,-3.26 5.477,-4.126c2.33,-0.897 1.322,-1.154 -1.548,-0.395m0.301,3.769c-2.082,1.822 -2.587,3.015 -2.949,6.977c-0.288,3.143 -0.738,3.264 -0.69,0.185c0.077,-4.887 0.683,-6.234 3.546,-7.87c2.224,-1.272 2.238,-1.168 0.093,0.708m26.292,4.532c1.242,1.556 1.201,1.62 -2.106,3.29l-1.77,0.894l-1.471,-1.471c-1.615,-1.615 -1.73,-1.842 -0.938,-1.842c0.293,0 1.497,-0.5 2.675,-1.111c2.622,-1.36 2.317,-1.38 3.61,0.24m-16.96,4.82c-0.313,0.578 -0.576,0.934 -0.584,0.791c-0.025,-0.44 0.836,-2.16 1,-1.996c0.085,0.084 -0.103,0.627 -0.416,1.205m-5.557,15.403c1.155,6.054 -0.163,9.86 -4.559,13.174c-2.622,1.976 -3.275,2.078 -6.432,1.007c-3.809,-1.293 -8.866,-0.501 -8.866,1.388c0,0.949 0.431,0.952 2.163,0.019c1.938,-1.045 4.627,-1.043 6.598,0.003l1.054,0.56l-1.482,0.601c-4.893,1.984 -6.833,4.175 -5.886,6.644c0.124,0.322 0.467,0.586 0.763,0.586c0.295,0 0.438,-0.161 0.316,-0.358c-0.779,-1.261 1.563,-3.69 4.992,-5.178c5.062,-2.197 6.034,-2.734 8.174,-4.515c1.253,-1.043 2.613,-2.465 3.024,-3.16c0.41,-0.696 0.822,-1.19 0.915,-1.097c0.165,0.165 -0.734,1.714 -1.639,2.826c-6.922,8.501 -7.844,10.785 -5.984,14.815c2.175,4.713 2.117,5.249 -0.812,7.498c-2.437,1.871 -3.062,2.866 -2.585,4.119c0.438,1.153 2.356,1.366 3.559,0.395c0.691,-0.558 0.681,-0.573 -0.257,-0.374c-1.802,0.382 -2.221,-0.814 -0.685,-1.957c4.386,-3.262 4.945,-5.003 2.905,-9.044c-2.197,-4.348 -1.776,-5.911 3.27,-12.145l2.569,-3.175l0.466,1.493c0.256,0.821 0.952,2.214 1.547,3.095c0.595,0.881 1.189,2.03 1.32,2.552l0.238,0.95l0.821,-1.029l0.82,-1.03l-1.424,-1.878c-2.247,-2.962 -2.901,-5.724 -2.878,-12.158c0.007,-1.823 -0.987,-6.036 -1.615,-6.849c-0.777,-1.006 -0.899,-0.345 -0.41,2.222m15.322,3.673c0.009,2.121 -0.308,2.71 -1.058,1.965c-0.332,-0.329 -1.144,-0.917 -1.806,-1.307c-1.872,-1.102 -1.692,-2.431 0.339,-2.511c0.849,-0.033 1.629,-0.146 1.734,-0.251c0.365,-0.365 0.786,0.754 0.791,2.104m-230.33,4.66c-1.104,3.742 -2.493,8.666 -2.763,9.798l-0.24,1.001l2.688,-1.517c3.402,-1.92 13.129,-7.595 15.921,-9.289l2.123,-1.287l-2.493,-0.236c-3.093,-0.292 -12.573,-0.962 -13.68,-0.966c-0.691,-0.003 -0.933,0.385 -1.556,2.496m231.447,5.433c0,0.289 -0.101,0.789 -0.225,1.111c-0.161,0.42 -0.003,0.586 0.556,0.586c0.429,0 0.783,-0.125 0.785,-0.278c0.003,-0.153 0.106,-0.653 0.229,-1.111c0.18,-0.672 0.071,-0.833 -0.561,-0.833c-0.431,0 -0.784,0.236 -0.784,0.525m-31.114,23.939c0.104,0.112 0.818,0.677 1.587,1.255c1.504,1.129 1.637,1.681 0.211,0.881c-1.304,-0.734 -2.518,-1.841 -3.378,-3.082l-0.771,-1.111l1.081,0.926c0.595,0.509 1.166,1.018 1.27,1.131" id="path2"/>
  <path fill-rule="evenodd" fill="#c4dce3" d="m149.01624,59.167c-0.169,3.467 -1.338,6.808 -2.831,8.086c-0.737,0.631 -0.737,0.634 0.011,2.069c1.028,1.973 0.901,18.393 -0.154,19.898c-2.381,3.396 -7.617,2.757 -9.498,-1.159c-1.865,-3.88 -2.205,-11.671 -0.706,-16.14l0.866,-2.583l-1.681,-0.25c-3.34,-0.496 -3.407,-0.479 -4.679,1.178c-2.843,3.704 -3.802,10.2 -2.202,14.919c2.215,6.536 11.599,10.328 16.686,6.743c1.509,-1.064 1.662,-1.104 1.662,-0.439c0,0.685 0.261,0.733 3.928,0.733l3.928,0l-0.236,-1.574c-0.13,-0.866 -0.319,-7.491 -0.42,-14.722c-0.163,-11.587 -0.266,-13.368 -0.87,-15c-0.377,-1.019 -0.803,-2.56 -0.947,-3.426c-0.247,-1.48 -0.335,-1.574 -1.481,-1.574l-1.218,0l-0.158,3.241m42.338,9.142c-3.423,0.919 -4.446,6.919 -1.722,10.102c1.22,1.425 2.433,2.117 9.451,5.394c5.041,2.354 6.252,4.066 4.797,6.784c-2.194,4.1 -6.485,2.292 -11.301,-4.763c-2.357,-3.453 -3.328,-3.316 -5.226,0.735c-1.784,3.809 -1.165,4.434 6.476,6.532c0.879,0.242 1.518,0.519 1.419,0.617c-0.437,0.436 6.501,-0.027 7.657,-0.51c5.367,-2.242 7.819,-9.356 4.448,-12.905c-1.298,-1.367 -2.63,-2.06 -7.344,-3.819c-5.777,-2.157 -7.032,-3.43 -6.792,-6.891c0.069,-0.994 0.042,-1.786 -0.06,-1.759c-0.102,0.027 -0.913,0.244 -1.803,0.483m-13.303,1.386l-1.958,1.132l0.291,2.272c0.422,3.291 0.274,12.376 -0.232,14.221c-1.73,6.304 -10.447,6.237 -12.35,-0.096c-0.487,-1.623 -0.635,-12.55 -0.196,-14.513c0.246,-1.102 0.187,-1.193 -0.926,-1.434c-0.654,-0.141 -1.811,-0.571 -2.571,-0.956l-1.382,-0.699l-0.91,1.441c-3.583,5.676 -2.484,15.114 2.244,19.276c5.116,4.503 14.267,4.588 19.645,0.181c5.244,-4.297 6.06,-15.897 1.458,-20.742l-1.155,-1.216l-1.958,1.133m24.402,2.2c1.554,4.536 2.362,4.655 4.738,0.698c1.243,-2.07 0.783,-2.419 -4.629,-3.508l-1.152,-0.232l1.043,3.042" id="path3"/>
  <path fill-rule="evenodd" fill="#349cdc" d="m25.19424,76.296c-0.714,0.307 -0.711,0.32 0.071,0.345c0.446,0.014 0.914,-0.141 1.04,-0.345c0.271,-0.438 -0.091,-0.438 -1.111,0m79.087,8.865c-1.011,1.889 0.498,5.24 2.335,5.186c0.743,-0.022 0.734,-0.05 -0.126,-0.387c-1.9,-0.746 -2.78,-3.04 -1.838,-4.799c0.211,-0.394 0.3,-0.717 0.198,-0.717c-0.102,0 -0.358,0.323 -0.569,0.717m6.546,1.082c0.244,1.823 -0.363,2.941 -1.959,3.608c-1.493,0.624 -1.626,0.856 -0.35,0.612c2.085,-0.399 3.942,-4.52 2.452,-5.441c-0.189,-0.117 -0.252,0.413 -0.143,1.221m103.476,3.233c0.557,2.13 0.736,2.387 0.493,0.709c-0.118,-0.815 -0.363,-1.634 -0.544,-1.82c-0.18,-0.187 -0.157,0.313 0.051,1.111m7.42,0.674c-0.23,0.913 -0.404,2.044 -0.388,2.514c0.016,0.47 0.262,-0.219 0.546,-1.531c0.592,-2.729 0.471,-3.481 -0.158,-0.983m-136.263,0.406c0.004,0.407 0.134,1.24 0.29,1.851c0.254,0.998 0.283,1.017 0.289,0.186c0.004,-0.51 -0.126,-1.343 -0.289,-1.852c-0.233,-0.726 -0.295,-0.766 -0.29,-0.185m6.771,0.925c-0.142,0.843 -0.181,1.61 -0.086,1.705c0.095,0.094 0.284,-0.522 0.42,-1.371c0.135,-0.849 0.174,-1.616 0.086,-1.704c-0.089,-0.089 -0.277,0.528 -0.42,1.37m-30.132,1.76c-0.029,0.865 0.082,1.574 0.247,1.574c0.493,0 1.774,-1.087 1.296,-1.1c-0.243,-0.006 -0.576,0.197 -0.741,0.452c-0.191,0.295 -0.381,-0.073 -0.525,-1.019l-0.225,-1.481l-0.052,1.574m121.77,0c0.177,1.278 0.202,1.304 0.325,0.325c0.072,-0.585 -0.014,-1.21 -0.193,-1.389c-0.186,-0.186 -0.243,0.268 -0.132,1.064m-50.331,-0.573c-0.006,0.144 0.365,0.654 0.823,1.133c0.458,0.48 1.032,1.196 1.274,1.591c0.243,0.396 0.451,0.508 0.463,0.251c0.012,-0.258 -0.557,-1.091 -1.264,-1.852c-0.708,-0.761 -1.291,-1.266 -1.296,-1.123m-125.084,0.738c-0.949,0.459 -1.981,2.436 -1.924,3.687c0.024,0.526 0.178,0.252 0.39,-0.693c1.229,-5.485 7.244,-3.961 9.347,2.369c1.624,4.886 2.762,4.893 5.164,0.03c1.624,-3.286 1.63,-3.353 0.337,-4.18l-1.018,-0.652l0.859,0.938l0.859,0.938l-1.281,2.541c-2.396,4.753 -3.078,4.814 -4.539,0.408c-1.685,-5.082 -4.709,-7.069 -8.194,-5.386m28.592,0.08c-2.022,0.899 -3.925,3.782 -3.864,5.854c0.014,0.483 0.219,0.126 0.478,-0.833c1.523,-5.647 8.359,-7.235 10.452,-2.427c0.274,0.628 0.504,0.926 0.512,0.661c0.086,-2.836 -4.292,-4.716 -7.578,-3.255m74.402,0.011c-0.113,0.294 -0.14,0.835 -0.06,1.204c0.09,0.418 0.217,0.217 0.337,-0.534c0.202,-1.262 0.071,-1.578 -0.277,-0.67m3.647,0.577c0,0.713 0.076,1.005 0.169,0.648c0.093,-0.356 0.093,-0.94 0,-1.296c-0.093,-0.357 -0.169,-0.065 -0.169,0.648m155.787,-0.549c-1.002,0.544 -1.83,2.268 -1.759,3.66c0.022,0.428 0.197,0.075 0.39,-0.785c1.226,-5.473 7.255,-3.906 9.367,2.434c1.409,4.232 2.258,4.652 3.978,1.972c1.724,-2.687 2.697,-5.223 2.196,-5.721c-0.364,-0.361 -0.411,-0.329 -0.228,0.153c0.275,0.721 -1.979,5.373 -3.086,6.372c-1.066,0.963 -1.353,0.639 -2.499,-2.818c-1.72,-5.184 -4.864,-7.166 -8.359,-5.267m-203.328,0.179c1.831,0.433 2.594,1.416 3.174,4.092c0.285,1.314 0.532,1.961 0.548,1.438c0.1,-3.241 -1.814,-5.965 -4.119,-5.863c-0.622,0.028 -0.514,0.118 0.397,0.333m13.802,0.463c-0.05,1.003 -0.017,1.018 2.159,1.018l2.21,0l0.119,3.982l0.119,3.981l0.078,-4.167l0.079,-4.166l-2.196,0c-1.984,0 -2.212,-0.081 -2.357,-0.834c-0.138,-0.714 -0.168,-0.688 -0.211,0.186m18.468,-0.093c0,0.694 -0.247,0.741 -3.889,0.741l-3.889,0l0.05,1.018c0.044,0.874 0.074,0.9 0.211,0.186c0.155,-0.801 0.312,-0.834 4.024,-0.834l3.863,0l0,-0.926c0,-0.509 -0.083,-0.926 -0.185,-0.926c-0.102,0 -0.185,0.334 -0.185,0.741m24.404,-0.648c-0.029,0.153 -0.073,0.486 -0.099,0.741c-0.025,0.254 -0.213,0.465 -0.416,0.468c-0.204,0.003 -0.566,0.13 -0.806,0.283c-0.261,0.166 -0.502,0.016 -0.605,-0.376c-0.141,-0.543 -0.177,-0.525 -0.213,0.106c-0.024,0.418 0.138,0.941 0.36,1.162c0.29,0.29 0.29,0.472 0,0.652c-0.225,0.139 -0.379,1.178 -0.349,2.356l0.055,2.108l0.228,-2.128c0.265,-2.485 1.972,-4.579 4.15,-5.093c1.026,-0.242 1.086,-0.302 0.328,-0.328c-0.509,-0.018 -1.172,0.123 -1.472,0.313c-0.36,0.227 -0.642,0.194 -0.828,-0.098c-0.155,-0.244 -0.305,-0.319 -0.333,-0.166m104.855,0.648c0,0.694 -0.247,0.741 -3.889,0.741c-3.468,0 -3.886,0.07 -3.859,0.648c0.017,0.387 0.104,0.462 0.216,0.185c0.132,-0.329 1.305,-0.463 4.044,-0.463l3.858,0l0,-0.926c0,-0.509 -0.083,-0.926 -0.185,-0.926c-0.102,0 -0.185,0.334 -0.185,0.741m-224.446,0.557c-0.477,0.509 -0.698,0.925 -0.491,0.925c0.473,0 1.787,-1.422 1.541,-1.668c-0.1,-0.1 -0.572,0.235 -1.05,0.743m59.784,-0.227c-2.694,1.643 -2.754,1.877 -2.664,10.368l0.081,7.635l0.197,-7.592c0.217,-8.386 0.227,-8.425 2.748,-10.134c1.645,-1.116 1.365,-1.33 -0.362,-0.277m64.494,0.209c0.5,0.5 0.909,1.194 0.909,1.543c0,0.349 0.098,0.536 0.219,0.415c0.522,-0.522 -0.877,-2.867 -1.71,-2.867c-0.18,0 0.082,0.409 0.582,0.909m138.131,0.202c-0.585,0.611 -0.894,1.111 -0.686,1.111c0.208,0 0.824,-0.5 1.368,-1.111c0.545,-0.611 0.854,-1.111 0.686,-1.111c-0.167,0 -0.782,0.5 -1.368,1.111m-74.747,0.671l-1.379,1.412l0.108,8.31l0.107,8.311l0.085,-8.242l0.085,-8.241l1.526,-1.481c0.84,-0.814 1.374,-1.481 1.187,-1.481c-0.187,0 -0.961,0.635 -1.719,1.412m-137.184,0.625c0.003,1.019 0.075,1.391 0.16,0.828c0.085,-0.563 0.083,-1.396 -0.005,-1.851c-0.088,-0.456 -0.158,0.005 -0.155,1.023m21.278,-0.027c0.34,0.917 0.684,1.601 0.765,1.52c0.22,-0.22 -0.671,-2.748 -1.052,-2.983c-0.182,-0.113 -0.053,0.546 0.287,1.463m107.981,0.397c0.003,1.019 0.075,1.392 0.16,0.829c0.085,-0.563 0.083,-1.397 -0.005,-1.852c-0.088,-0.456 -0.158,0.005 -0.155,1.023m28.307,-1.392l2.301,0.131l0.122,3.408l0.122,3.409l0.077,-3.611l0.076,-3.611l-2.5,0.071l-2.5,0.072l2.302,0.131m-182.487,1.022c-0.478,0.509 -0.703,0.926 -0.499,0.926c0.203,0 0.762,-0.417 1.24,-0.926c0.478,-0.509 0.703,-0.926 0.499,-0.926c-0.203,0 -0.761,0.417 -1.24,0.926m73.797,0.37c0.004,0.815 0.08,1.105 0.169,0.644c0.088,-0.46 0.085,-1.127 -0.008,-1.481c-0.092,-0.354 -0.165,0.023 -0.161,0.837m32.767,-0.551c-0.708,0.827 -0.791,1.107 -0.327,1.107c0.171,0 0.501,-0.417 0.733,-0.926c0.51,-1.121 0.429,-1.157 -0.406,-0.181m22.173,0.858c-1.201,1.465 -2.701,4.323 -2.27,4.323c0.1,0 0.511,-0.723 0.913,-1.607c0.403,-0.884 1.361,-2.217 2.129,-2.963c0.767,-0.746 1.203,-1.356 0.968,-1.356c-0.235,0 -1.018,0.721 -1.74,1.603m-47.895,0.249c0,0.917 0.072,1.292 0.16,0.833c0.089,-0.458 0.089,-1.208 0,-1.666c-0.088,-0.459 -0.16,-0.084 -0.16,0.833m26.403,0.395c-1.376,2.527 -1.061,2.617 0.409,0.117c0.644,-1.096 1.046,-1.993 0.892,-1.993c-0.154,0 -0.74,0.844 -1.301,1.876m42.564,-1.598c1.079,2.122 1.298,2.441 1.3,1.892c0.001,-0.334 -0.344,-1 -0.767,-1.481c-0.423,-0.481 -0.662,-0.666 -0.533,-0.411m-177.096,1.481c-0.32,0.764 -0.64,2.055 -0.711,2.87l-0.13,1.482l0.331,-1.516c0.182,-0.834 0.586,-2.126 0.897,-2.871c0.311,-0.745 0.483,-1.354 0.381,-1.354c-0.102,0 -0.447,0.625 -0.768,1.389m112.587,0.648c0.002,1.222 0.071,1.678 0.154,1.012c0.082,-0.666 0.081,-1.666 -0.004,-2.222c-0.084,-0.557 -0.152,-0.012 -0.15,1.21m90.482,-1.111c0.304,1.362 0.516,1.657 0.509,0.71c-0.003,-0.391 -0.175,-0.96 -0.382,-1.266c-0.274,-0.405 -0.309,-0.256 -0.127,0.556m-43.146,0.592c-0.228,0.652 -0.402,1.452 -0.389,1.778c0.014,0.326 0.257,-0.151 0.54,-1.059c0.592,-1.902 0.468,-2.495 -0.151,-0.719m10.963,-0.5c-0.082,0.153 -0.011,0.695 0.156,1.204c0.305,0.924 0.305,0.924 0.181,-0.08c-0.068,-0.553 0.06,-1.081 0.285,-1.174c0.276,-0.114 0.266,-0.178 -0.032,-0.198c-0.243,-0.016 -0.508,0.096 -0.59,0.248m-43.513,1.204c0,0.713 0.076,1.005 0.169,0.648c0.094,-0.356 0.094,-0.94 0,-1.296c-0.093,-0.356 -0.169,-0.065 -0.169,0.648m15.617,-0.591c-0.11,0.286 -0.141,1.078 -0.07,1.76c0.114,1.086 0.151,1.022 0.307,-0.521c0.181,-1.804 0.114,-2.154 -0.237,-1.239m75.169,2.628c-0.001,1.834 0.062,2.63 0.14,1.771c0.077,-0.86 0.078,-2.36 0.002,-3.334c-0.077,-0.973 -0.14,-0.27 -0.142,1.563m43.979,-1.982c-0.223,0.642 -0.387,1.6 -0.364,2.13c0.035,0.793 0.09,0.734 0.306,-0.333c0.145,-0.713 0.387,-1.671 0.538,-2.13c0.151,-0.458 0.196,-0.833 0.101,-0.833c-0.096,0 -0.357,0.525 -0.581,1.166m-173.232,3.278c0,2.139 0.061,3.014 0.136,1.945c0.075,-1.07 0.075,-2.82 0,-3.889c-0.075,-1.069 -0.136,-0.194 -0.136,1.944m-84.938,-3.031c-0.008,0.268 0.175,0.841 0.406,1.273c0.581,1.085 1.802,2.355 1.802,1.874c0,-0.218 -0.275,-0.624 -0.612,-0.903c-0.337,-0.28 -0.83,-1.009 -1.097,-1.62c-0.266,-0.611 -0.491,-0.892 -0.499,-0.624m44.787,0.231c-0.298,0.293 -4.292,2.897 -8.875,5.785c-4.584,2.889 -8.401,5.314 -8.484,5.39c-0.083,0.075 0.043,0.514 0.279,0.974c0.405,0.786 0.419,0.789 0.232,0.046c-0.173,-0.692 0.838,-1.444 8.07,-5.998c4.548,-2.864 8.579,-5.549 8.958,-5.968c0.782,-0.865 0.645,-1.039 -0.18,-0.229m25.67,0.949c0,0.916 0.072,1.291 0.161,0.833c0.088,-0.458 0.088,-1.208 0,-1.667c-0.089,-0.458 -0.161,-0.083 -0.161,0.834m74.82,0.185c0.003,1.018 0.075,1.391 0.16,0.828c0.085,-0.563 0.083,-1.396 -0.005,-1.852c-0.088,-0.455 -0.158,0.005 -0.155,1.024m48.128,-0.556c0,0.713 0.076,1.005 0.169,0.648c0.094,-0.356 0.094,-0.939 0,-1.296c-0.093,-0.356 -0.169,-0.065 -0.169,0.648m-20.456,0.212c-0.713,0.503 -4.671,3.036 -8.796,5.627c-7.056,4.432 -8.286,5.484 -7.195,6.158c0.168,0.104 0.293,-0.156 0.278,-0.576c-0.022,-0.605 1.664,-1.83 8.038,-5.839c4.437,-2.791 8.348,-5.355 8.691,-5.698c0.866,-0.866 0.512,-0.752 -1.016,0.328m26.767,0.529c0,0.917 0.073,1.292 0.161,0.833c0.088,-0.458 0.088,-1.208 0,-1.666c-0.088,-0.459 -0.161,-0.084 -0.161,0.833m62.864,-1.097c-0.002,0.672 2.184,3.34 2.206,2.693c0.008,-0.243 -0.166,-0.553 -0.386,-0.689c-0.22,-0.136 -0.719,-0.771 -1.109,-1.41c-0.391,-0.64 -0.71,-0.907 -0.711,-0.594m-213.923,6.467c0.001,3.667 0.056,5.117 0.124,3.222c0.067,-1.894 0.067,-4.894 -0.001,-6.666c-0.068,-1.772 -0.123,-0.222 -0.123,3.444m48.89,0.186c0,3.768 0.055,5.31 0.122,3.425c0.067,-1.884 0.067,-4.967 0,-6.851c-0.067,-1.885 -0.122,-0.343 -0.122,3.426m154.697,-6.297c-0.014,0.102 0.212,0.935 0.5,1.852c0.289,0.917 0.529,1.333 0.534,0.926c0.007,-0.645 -0.969,-3.268 -1.034,-2.778m-215.011,1.043c-0.151,0.472 -0.802,1.457 -1.445,2.19c-0.768,0.874 -0.907,1.168 -0.405,0.854c1.031,-0.643 2.493,-2.828 2.29,-3.422c-0.097,-0.284 -0.276,-0.13 -0.44,0.378m66.608,5.439c0,3.463 0.055,4.929 0.124,3.259c0.068,-1.671 0.069,-4.504 0.001,-6.297c-0.068,-1.792 -0.124,-0.425 -0.125,3.038m61.767,-4.124c-0.864,1.319 -0.991,1.662 -0.425,1.15c0.785,-0.711 2.013,-2.74 1.775,-2.933c-0.066,-0.053 -0.674,0.749 -1.35,1.783m12.306,3.753c0,3.26 0.057,4.543 0.125,2.853c0.069,-1.69 0.069,-4.357 0,-5.926c-0.07,-1.569 -0.126,-0.186 -0.125,3.073m-54.071,1.297c0,3.768 0.055,5.31 0.123,3.426c0.067,-1.885 0.067,-4.968 0,-6.852c-0.068,-1.885 -0.123,-0.343 -0.123,3.426m31.453,-4.074c0,1.527 0.065,2.152 0.145,1.388c0.08,-0.763 0.08,-2.013 0,-2.777c-0.08,-0.764 -0.145,-0.139 -0.145,1.389m-129.266,0c0,1.324 0.068,1.865 0.15,1.203c0.082,-0.662 0.082,-1.745 0,-2.407c-0.082,-0.662 -0.15,-0.12 -0.15,1.204m104.112,5.185c0,4.176 0.054,5.884 0.12,3.796c0.066,-2.088 0.066,-5.505 0,-7.593c-0.066,-2.087 -0.12,-0.379 -0.12,3.797m-65.557,0c0,3.972 0.055,5.597 0.121,3.611c0.067,-1.986 0.067,-5.236 0,-7.222c-0.066,-1.986 -0.121,-0.361 -0.121,3.611m44.43,-2.593c0,2.343 0.06,3.301 0.133,2.13c0.074,-1.171 0.074,-3.088 0,-4.259c-0.073,-1.172 -0.133,-0.213 -0.133,2.129m84.828,2.408c0,3.666 0.055,5.116 0.123,3.222c0.067,-1.895 0.067,-4.895 -0.001,-6.667c-0.068,-1.772 -0.123,-0.222 -0.122,3.445m-44.762,-4.795c-0.14,0.744 -0.18,1.426 -0.089,1.516c0.09,0.091 0.278,-0.443 0.418,-1.186c0.139,-0.744 0.179,-1.426 0.089,-1.516c-0.091,-0.091 -0.279,0.443 -0.418,1.186m-153.894,-0.385c-0.048,2.206 2.268,4.392 6.905,6.516c8.386,3.842 8.944,4.23 9.391,6.535l0.27,1.388l0.042,-1.261c0.067,-1.991 -1.925,-3.579 -7.682,-6.123c-5.422,-2.396 -7.586,-4.026 -8.39,-6.32c-0.297,-0.847 -0.526,-1.162 -0.536,-0.735m75.69,5.365c0,3.361 0.057,4.736 0.125,3.055c0.069,-1.68 0.069,-4.43 0,-6.111c-0.068,-1.68 -0.125,-0.305 -0.125,3.056m68.513,-1.111c0,2.75 0.058,3.875 0.13,2.5c0.071,-1.375 0.071,-3.625 0,-5c-0.072,-1.375 -0.13,-0.25 -0.13,2.5m86.021,-3.438c-0.128,0.77 -0.21,2.401 -0.183,3.623c0.041,1.856 0.096,1.643 0.336,-1.296c0.301,-3.698 0.236,-4.685 -0.153,-2.327m21.014,3.438c0,2.546 0.059,3.588 0.131,2.314c0.073,-1.273 0.073,-3.356 0,-4.629c-0.072,-1.273 -0.131,-0.232 -0.131,2.315m-46.289,2.037c0,3.259 0.057,4.543 0.126,2.852c0.068,-1.69 0.068,-4.356 -0.001,-5.925c-0.069,-1.569 -0.126,-0.187 -0.125,3.073m53.289,-4.074c0.003,1.018 0.075,1.391 0.16,0.828c0.085,-0.563 0.083,-1.396 -0.005,-1.852c-0.088,-0.456 -0.158,0.005 -0.155,1.024m4.709,-0.551c0,1.005 3.101,3.248 7.016,5.075c6.489,3.028 7.437,3.549 8.203,4.507c0.783,0.978 0.909,2.306 0.324,3.4c-0.217,0.404 -0.235,0.717 -0.044,0.717c0.393,0 0.785,-1.265 0.792,-2.558c0.009,-1.586 -2.422,-3.387 -7.785,-5.765c-3.928,-1.742 -5.361,-2.584 -6.747,-3.964c-0.967,-0.964 -1.759,-1.599 -1.759,-1.412m-50.229,5.747c0.059,7.528 1.909,11.004 5.785,10.871c0.843,-0.029 0.827,-0.056 -0.186,-0.3c-1.698,-0.41 -2.662,-1.033 -3.634,-2.346c-1.384,-1.873 -1.481,-2.331 -1.754,-8.236l-0.256,-5.556l0.045,5.567m-59.276,-2.419c0,1.528 0.065,2.153 0.145,1.389c0.08,-0.764 0.08,-2.014 0,-2.777c-0.08,-0.764 -0.145,-0.139 -0.145,1.388m-129.265,0c0,1.324 0.067,1.866 0.149,1.204c0.082,-0.662 0.082,-1.745 0,-2.407c-0.082,-0.662 -0.149,-0.121 -0.149,1.203m59.282,2.408c0,2.444 0.06,3.396 0.133,2.115c0.072,-1.281 0.072,-3.281 -0.001,-4.445c-0.074,-1.163 -0.133,-0.115 -0.132,2.33m197.636,-2.532c0.917,1.041 1.722,1.842 1.789,1.781c0.271,-0.246 -1.218,-2.097 -2.301,-2.86c-0.993,-0.699 -0.921,-0.548 0.512,1.079m-262.963,-0.695c0,0.224 0.326,0.635 0.724,0.914c3.813,2.671 0.721,10.604 -4.89,12.543c-1.07,0.369 -1.612,0.675 -1.204,0.68c4.876,0.056 9.442,-7.254 7.458,-11.941c-0.531,-1.254 -2.088,-2.892 -2.088,-2.196m240.101,1.56c0,0.917 0.072,1.292 0.161,0.833c0.088,-0.458 0.088,-1.208 0,-1.666c-0.089,-0.459 -0.161,-0.084 -0.161,0.833m-138.12,3.333c0,1.732 0.064,2.44 0.142,1.575c0.078,-0.866 0.078,-2.283 0,-3.149c-0.078,-0.865 -0.142,-0.157 -0.142,1.574m110.279,-1.481c-0.146,3.662 6.348,10.417 9.962,10.361c0.306,-0.004 -0.379,-0.393 -1.521,-0.863c-4.365,-1.795 -7.089,-4.841 -8.076,-9.029c-0.247,-1.052 -0.337,-1.167 -0.365,-0.469m7.1,1.111c0,0.917 0.073,1.292 0.161,0.833c0.088,-0.458 0.088,-1.208 0,-1.666c-0.088,-0.459 -0.161,-0.084 -0.161,0.833m45.566,0.37c0,1.121 0.069,1.579 0.154,1.019c0.085,-0.56 0.085,-1.477 0,-2.037c-0.085,-0.56 -0.154,-0.102 -0.154,1.018m-25.551,0.032c-0.951,3.539 -3.638,6.403 -7.494,7.99c-1.136,0.467 -1.816,0.854 -1.51,0.858c3.394,0.052 10.138,-6.906 9.564,-9.867c-0.066,-0.339 -0.318,0.119 -0.56,1.019m-256.865,-0.494c-0.656,0.748 -1.881,3.072 -1.704,3.231c0.066,0.06 0.648,-0.789 1.292,-1.886c1.244,-2.116 1.328,-2.391 0.412,-1.345m1.935,0.092c0.407,0.408 0.85,0.741 0.983,0.741c0.133,0 -0.059,-0.333 -0.428,-0.741c-0.369,-0.407 -0.811,-0.741 -0.983,-0.741c-0.172,0 0.02,0.334 0.428,0.741m151.136,-0.344c-0.15,3.524 4.477,8.547 8.678,9.421c0.612,0.127 0.15,-0.18 -1.025,-0.681c-3.885,-1.657 -5.927,-3.876 -7.141,-7.761c-0.268,-0.858 -0.499,-1.299 -0.512,-0.979m111.456,0.344c0.218,0.408 0.583,0.741 0.811,0.741c0.229,0 0.113,-0.333 -0.255,-0.741c-0.369,-0.407 -0.734,-0.741 -0.811,-0.741c-0.078,0 0.037,0.334 0.255,0.741m-151.733,1.852c0,1.324 0.067,1.866 0.149,1.204c0.082,-0.662 0.082,-1.746 0,-2.408c-0.082,-0.662 -0.149,-0.12 -0.149,1.204m-23.796,0.031c0.014,1.103 0.161,2.339 0.325,2.747c0.172,0.424 0.219,-0.369 0.111,-1.852c-0.231,-3.148 -0.472,-3.644 -0.436,-0.895m60.836,0.525c0.002,1.425 0.069,1.963 0.149,1.195c0.08,-0.768 0.079,-1.935 -0.003,-2.593c-0.082,-0.657 -0.148,-0.028 -0.146,1.398m-125.674,-1.377c-0.022,2.923 7.594,9.644 9.157,8.081c0.122,-0.123 -0.014,-0.225 -0.302,-0.227c-2.366,-0.016 -6.556,-3.402 -7.971,-6.44c-0.484,-1.039 -0.882,-1.675 -0.884,-1.414m8.52,0.451c0.543,1.056 1.847,2.803 1.847,2.473c0,-0.228 -1.735,-2.865 -2.108,-3.204c-0.118,-0.108 0,0.221 0.261,0.731m128.884,-0.593c0,0.5 1.545,2.875 1.742,2.678c0.097,-0.097 -0.256,-0.811 -0.783,-1.587c-0.527,-0.776 -0.959,-1.267 -0.959,-1.091m88.605,0.963c0,0.713 0.076,1.005 0.169,0.648c0.093,-0.356 0.093,-0.94 0,-1.296c-0.093,-0.357 -0.169,-0.065 -0.169,0.648m-31.891,0.37c-0.054,1.627 0.51,3.702 1.264,4.647c0.509,0.639 0.508,0.582 -0.011,-0.49c-0.324,-0.667 -0.728,-2.167 -0.899,-3.333c-0.232,-1.579 -0.322,-1.789 -0.354,-0.824m47.38,-0.926c0.005,0.49 1.038,1.844 1.247,1.635c0.09,-0.091 -0.154,-0.578 -0.543,-1.085c-0.389,-0.506 -0.706,-0.753 -0.704,-0.55m-83.988,1.852c0.003,1.019 0.075,1.391 0.16,0.829c0.085,-0.563 0.083,-1.397 -0.005,-1.852c-0.088,-0.456 -0.158,0.005 -0.155,1.023m-129.259,0.371c0.003,1.018 0.075,1.391 0.16,0.828c0.085,-0.563 0.083,-1.396 -0.005,-1.852c-0.088,-0.456 -0.158,0.005 -0.155,1.024m90.746,0.185c0,1.12 0.069,1.579 0.154,1.018c0.085,-0.56 0.085,-1.477 0,-2.037c-0.085,-0.56 -0.154,-0.102 -0.154,1.019m-139.359,-1.335c-0.012,0.344 2.223,3.251 3.376,4.39c1.328,1.313 1.105,0.598 -0.288,-0.926c-0.792,-0.865 -1.808,-2.074 -2.258,-2.685c-0.45,-0.611 -0.823,-0.961 -0.83,-0.779m97.502,1.52c0.003,1.019 0.075,1.391 0.16,0.828c0.085,-0.563 0.083,-1.396 -0.005,-1.852c-0.088,-0.455 -0.158,0.005 -0.155,1.024m7.032,-0.185c0,0.916 0.072,1.291 0.16,0.833c0.089,-0.458 0.089,-1.208 0,-1.667c-0.088,-0.458 -0.16,-0.083 -0.16,0.834m-48.897,0.185c0.005,0.815 0.08,1.105 0.169,0.644c0.089,-0.461 0.085,-1.128 -0.007,-1.482c-0.093,-0.354 -0.166,0.023 -0.162,0.838m201.059,-0.144c-0.539,1.546 -0.281,1.803 0.33,0.329c0.258,-0.624 0.383,-1.221 0.277,-1.327c-0.105,-0.106 -0.379,0.343 -0.607,0.998m21.16,0.035c-0.682,1.885 -3.42,4.354 -5.706,5.143c-1.087,0.375 -1.679,0.688 -1.316,0.695c2.689,0.049 8.226,-4.812 7.604,-6.676c-0.073,-0.221 -0.335,0.156 -0.582,0.838m-92.959,0.479c0.004,0.815 0.08,1.105 0.168,0.644c0.089,-0.461 0.085,-1.127 -0.007,-1.481c-0.093,-0.354 -0.165,0.023 -0.161,0.837m-105.492,0.084c0.252,1.576 1.857,3.962 3.022,4.493c1.439,0.655 1.578,0.498 0.267,-0.301c-1.327,-0.809 -2.174,-1.956 -2.952,-4.001c-0.516,-1.355 -0.524,-1.359 -0.337,-0.191m-85.674,0.521c-0.324,0.929 -0.313,1.264 0.049,1.493c0.783,0.495 6.691,2.574 7.875,2.771c0.611,0.102 -0.606,-0.409 -2.704,-1.135c-5.237,-1.813 -5.318,-1.863 -4.866,-3.051c0.203,-0.534 0.3,-1.039 0.216,-1.123c-0.084,-0.084 -0.341,0.386 -0.57,1.045m77.832,0.136c0.004,0.815 0.08,1.105 0.169,0.644c0.089,-0.461 0.085,-1.127 -0.008,-1.482c-0.092,-0.354 -0.165,0.023 -0.161,0.838m22.361,-0.138c-0.323,1.614 -2.806,3.92 -4.581,4.255c-0.765,0.144 -1.185,0.332 -0.932,0.417c2.046,0.689 7.274,-4.331 5.921,-5.684c-0.095,-0.095 -0.278,0.361 -0.408,1.012m29.862,0.138c0.004,0.815 0.08,1.105 0.168,0.644c0.089,-0.461 0.085,-1.127 -0.007,-1.482c-0.093,-0.354 -0.166,0.023 -0.161,0.838m-7.786,0.185c0,0.713 0.077,1.005 0.17,0.648c0.093,-0.356 0.093,-0.939 0,-1.296c-0.093,-0.356 -0.17,-0.065 -0.17,0.648m77.778,0c0,0.713 0.076,1.005 0.169,0.648c0.094,-0.356 0.094,-0.939 0,-1.296c-0.093,-0.356 -0.169,-0.065 -0.169,0.648m7.037,0c0,0.713 0.076,1.005 0.17,0.648c0.093,-0.356 0.093,-0.939 0,-1.296c-0.094,-0.356 -0.17,-0.065 -0.17,0.648m-136.328,0.185c-0.035,0.612 -0.15,1.528 -0.255,2.038l-0.19,0.925l0.398,-0.913c0.219,-0.502 0.334,-1.418 0.255,-2.037l-0.144,-1.124l-0.064,1.111m44.106,0.186c0,0.713 0.076,1.004 0.169,0.648c0.093,-0.357 0.093,-0.94 0,-1.296c-0.093,-0.357 -0.169,-0.065 -0.169,0.648m-63.99,-0.346c-0.184,0.297 -0.133,0.366 0.143,0.196c0.602,-0.372 0.534,0.341 -0.081,0.851c-0.28,0.233 -0.821,0.321 -1.204,0.196c-0.558,-0.182 -0.588,-0.151 -0.151,0.158c0.553,0.391 -2.77,2.266 -4.031,2.274c-0.289,0.002 -0.425,0.104 -0.302,0.227c0.443,0.443 3.919,-1.023 5.319,-2.244c1.08,-0.942 1.329,-1.357 1.012,-1.684c-0.322,-0.331 -0.488,-0.325 -0.705,0.026m47.978,-0.099c0,0.23 -0.542,1.038 -1.204,1.794c-1.086,1.242 -1.109,1.315 -0.242,0.749c0.967,-0.631 2.016,-2.393 1.645,-2.763c-0.109,-0.11 -0.199,-0.011 -0.199,0.22m81.661,0.105c0.268,0.704 -1.791,2.235 -4.485,3.336c-0.993,0.405 -1.329,0.639 -0.746,0.52c2.986,-0.613 6.377,-3.083 5.469,-3.984c-0.367,-0.365 -0.416,-0.338 -0.238,0.128m90.191,-0.298c0,0.38 2.596,2.98 2.786,2.79c0.09,-0.09 -0.5,-0.811 -1.311,-1.603c-0.811,-0.792 -1.475,-1.326 -1.475,-1.187m-41.767,1.155c-0.528,1.158 -2.525,2.657 -4.159,3.122c-0.713,0.202 -0.999,0.383 -0.636,0.401c1.649,0.084 5.451,-2.744 5.451,-4.053c0,-0.592 -0.229,-0.408 -0.656,0.53m11.767,-0.646c0,0.203 0.417,0.761 0.926,1.24c0.509,0.478 0.926,0.703 0.926,0.499c0,-0.203 -0.417,-0.762 -0.926,-1.24c-0.509,-0.478 -0.926,-0.703 -0.926,-0.499m-186.21,1.24c0,0.713 0.076,1.004 0.169,0.648c0.093,-0.357 0.093,-0.94 0,-1.296c-0.093,-0.357 -0.169,-0.065 -0.169,0.648m129.144,0.092c-0.111,0.796 -0.054,1.25 0.132,1.064c0.179,-0.179 0.265,-0.804 0.193,-1.389c-0.123,-0.979 -0.148,-0.953 -0.325,0.325m43.421,-0.092c-0.452,0.611 -0.654,1.111 -0.45,1.111c0.205,0 0.631,-0.5 0.947,-1.111c0.316,-0.611 0.518,-1.111 0.449,-1.111c-0.068,0 -0.494,0.5 -0.946,1.111m35.126,-0.809c0,0.555 7.456,3.411 8.866,3.395c0.318,-0.003 -1.171,-0.596 -3.31,-1.317c-2.139,-0.72 -4.264,-1.554 -4.722,-1.854c-0.459,-0.299 -0.834,-0.4 -0.834,-0.224m-244.958,0.982c-0.338,0.516 -0.484,0.938 -0.324,0.938c0.36,0 1.319,-1.495 1.099,-1.714c-0.088,-0.089 -0.437,0.261 -0.775,0.776m86.155,0.197c0,0.713 0.077,1.005 0.17,0.648c0.093,-0.356 0.093,-0.94 0,-1.296c-0.093,-0.356 -0.17,-0.065 -0.17,0.648m41.722,-0.081c-0.122,0.736 -0.067,1.082 0.138,0.876c0.187,-0.186 0.277,-0.733 0.202,-1.215c-0.117,-0.741 -0.169,-0.689 -0.34,0.339m-135.419,2.559c0.357,0.093 0.94,0.093 1.297,0c0.356,-0.093 0.065,-0.17 -0.648,-0.17c-0.713,0 -1.005,0.077 -0.649,0.17m27.037,0c0.357,0.093 0.94,0.093 1.297,0c0.356,-0.093 0.065,-0.17 -0.648,-0.17c-0.713,0 -1.005,0.077 -0.649,0.17m6.297,0c0.356,0.093 0.94,0.093 1.296,0c0.357,-0.093 0.065,-0.17 -0.648,-0.17c-0.713,0 -1.005,0.077 -0.648,0.17m129.259,0c0.356,0.093 0.94,0.093 1.296,0c0.357,-0.093 0.065,-0.17 -0.648,-0.17c-0.713,0 -1.004,0.077 -0.648,0.17m71.111,0c0.357,0.093 0.94,0.093 1.296,0c0.357,-0.093 0.065,-0.17 -0.648,-0.17c-0.713,0 -1.004,0.077 -0.648,0.17m28.889,0c0.356,0.093 0.94,0.093 1.296,0c0.357,-0.093 0.065,-0.17 -0.648,-0.17c-0.713,0 -1.004,0.077 -0.648,0.17" id="path4"/>
 </g>
</svg>